<mxfile host="app.diagrams.net" modified="2021-09-30T20:13:05.081Z" agent="5.0 (Macintosh; Intel Mac OS X 10_15_7) AppleWebKit/537.36 (KHTML, like Gecko) Chrome/94.0.4606.61 Safari/537.36" etag="q0wRJtJfTJSPGfbjUjBF" version="15.3.5" type="github">
  <diagram id="-7wmHnVTNPJB1RD_bzy7" name="Page-1">
    <mxGraphModel dx="2252" dy="801" grid="1" gridSize="10" guides="1" tooltips="1" connect="1" arrows="1" fold="1" page="1" pageScale="1" pageWidth="827" pageHeight="1169" math="0" shadow="0">
      <root>
        <mxCell id="0" />
        <mxCell id="1" parent="0" />
        <mxCell id="7yRnZGhyyuTeM_uhMtki-2" value="" style="rounded=0;whiteSpace=wrap;html=1;fillColor=none;" vertex="1" parent="1">
          <mxGeometry x="-230" y="380" width="420" height="410" as="geometry" />
        </mxCell>
        <mxCell id="7yRnZGhyyuTeM_uhMtki-4" value="" style="rounded=0;whiteSpace=wrap;html=1;" vertex="1" parent="1">
          <mxGeometry x="-205.82" y="440" width="380" height="261" as="geometry" />
        </mxCell>
        <mxCell id="7yRnZGhyyuTeM_uhMtki-6" style="edgeStyle=none;rounded=0;orthogonalLoop=1;jettySize=auto;html=1;exitX=0.5;exitY=0;exitDx=0;exitDy=0;exitPerimeter=0;entryX=0.161;entryY=1;entryDx=0;entryDy=0;entryPerimeter=0;endArrow=none;endFill=0;startArrow=classic;startFill=1;" edge="1" parent="1" source="7yRnZGhyyuTeM_uhMtki-7" target="7yRnZGhyyuTeM_uhMtki-12">
          <mxGeometry relative="1" as="geometry" />
        </mxCell>
        <mxCell id="7yRnZGhyyuTeM_uhMtki-7" value="&lt;font style=&quot;font-size: 21px&quot;&gt;PM&lt;/font&gt;" style="shape=cylinder3;whiteSpace=wrap;html=1;boundedLbl=1;backgroundOutline=1;size=7.529411764706083;fillColor=none;" vertex="1" parent="1">
          <mxGeometry x="-168" y="621" width="70" height="60" as="geometry" />
        </mxCell>
        <mxCell id="7yRnZGhyyuTeM_uhMtki-8" style="edgeStyle=none;rounded=0;orthogonalLoop=1;jettySize=auto;html=1;exitX=0.25;exitY=0;exitDx=0;exitDy=0;entryX=0.702;entryY=1;entryDx=0;entryDy=0;entryPerimeter=0;startArrow=classic;startFill=1;endArrow=none;endFill=0;" edge="1" parent="1">
          <mxGeometry relative="1" as="geometry">
            <mxPoint x="31.62" y="621" as="sourcePoint" />
            <mxPoint x="30.679999999999946" y="521" as="targetPoint" />
          </mxGeometry>
        </mxCell>
        <mxCell id="7yRnZGhyyuTeM_uhMtki-26" style="edgeStyle=orthogonalEdgeStyle;rounded=0;orthogonalLoop=1;jettySize=auto;html=1;exitX=0.5;exitY=1;exitDx=0;exitDy=0;entryX=0.5;entryY=0;entryDx=0;entryDy=0;endArrow=classic;endFill=1;startSize=15;endSize=6;sourcePerimeterSpacing=8;targetPerimeterSpacing=8;" edge="1" parent="1" source="7yRnZGhyyuTeM_uhMtki-10" target="7yRnZGhyyuTeM_uhMtki-20">
          <mxGeometry relative="1" as="geometry">
            <Array as="points">
              <mxPoint x="59" y="730" />
              <mxPoint x="-141" y="730" />
            </Array>
          </mxGeometry>
        </mxCell>
        <mxCell id="7yRnZGhyyuTeM_uhMtki-27" style="edgeStyle=orthogonalEdgeStyle;rounded=0;orthogonalLoop=1;jettySize=auto;html=1;exitX=0.5;exitY=1;exitDx=0;exitDy=0;entryX=0.5;entryY=0;entryDx=0;entryDy=0;endArrow=classic;endFill=1;startSize=15;endSize=6;sourcePerimeterSpacing=8;targetPerimeterSpacing=8;" edge="1" parent="1" source="7yRnZGhyyuTeM_uhMtki-10" target="7yRnZGhyyuTeM_uhMtki-21">
          <mxGeometry relative="1" as="geometry">
            <Array as="points">
              <mxPoint x="59" y="730" />
              <mxPoint x="-2" y="730" />
            </Array>
          </mxGeometry>
        </mxCell>
        <mxCell id="7yRnZGhyyuTeM_uhMtki-10" value="&lt;font style=&quot;font-size: 17px&quot;&gt;Order- and Replication Interface&lt;/font&gt;" style="rounded=0;whiteSpace=wrap;html=1;fillColor=none;" vertex="1" parent="1">
          <mxGeometry x="-35.82" y="621" width="190" height="60" as="geometry" />
        </mxCell>
        <mxCell id="7yRnZGhyyuTeM_uhMtki-11" style="edgeStyle=none;rounded=0;orthogonalLoop=1;jettySize=auto;html=1;exitX=0.75;exitY=1;exitDx=0;exitDy=0;startArrow=classic;startFill=1;endArrow=none;endFill=0;" edge="1" parent="1">
          <mxGeometry relative="1" as="geometry">
            <mxPoint x="80.68" y="521" as="sourcePoint" />
            <mxPoint x="81.68" y="620" as="targetPoint" />
          </mxGeometry>
        </mxCell>
        <mxCell id="7yRnZGhyyuTeM_uhMtki-12" value="&lt;font style=&quot;font-size: 17px&quot;&gt;Log API&lt;/font&gt;" style="rounded=0;whiteSpace=wrap;html=1;fillColor=none;" vertex="1" parent="1">
          <mxGeometry x="-189.07" y="459" width="346.5" height="60" as="geometry" />
        </mxCell>
        <mxCell id="7yRnZGhyyuTeM_uhMtki-13" value="&lt;font style=&quot;font-size: 15px&quot;&gt;Append/&lt;br&gt;Read&lt;br&gt;&lt;/font&gt;" style="text;html=1;strokeColor=none;fillColor=none;align=center;verticalAlign=middle;whiteSpace=wrap;rounded=0;" vertex="1" parent="1">
          <mxGeometry x="-184.19" y="565" width="40" height="20" as="geometry" />
        </mxCell>
        <mxCell id="7yRnZGhyyuTeM_uhMtki-14" value="&lt;font style=&quot;font-size: 15px&quot;&gt;Replicate-AndOrder(&lt;i&gt;region&lt;/i&gt;)&lt;/font&gt;" style="text;html=1;strokeColor=none;fillColor=none;align=center;verticalAlign=middle;whiteSpace=wrap;rounded=0;" vertex="1" parent="1">
          <mxGeometry x="-50.82" y="564.5" width="40" height="20" as="geometry" />
        </mxCell>
        <mxCell id="7yRnZGhyyuTeM_uhMtki-15" value="&lt;font style=&quot;font-size: 15px&quot;&gt;Commit&lt;/font&gt;" style="text;html=1;strokeColor=none;fillColor=none;align=center;verticalAlign=middle;whiteSpace=wrap;rounded=0;" vertex="1" parent="1">
          <mxGeometry x="90.68" y="565" width="40" height="20" as="geometry" />
        </mxCell>
        <mxCell id="7yRnZGhyyuTeM_uhMtki-18" value="&lt;span style=&quot;font-size: 15px&quot;&gt;Replica&lt;/span&gt;" style="text;html=1;align=center;verticalAlign=middle;resizable=0;points=[];autosize=1;strokeColor=none;fillColor=none;" vertex="1" parent="1">
          <mxGeometry x="-214.19" y="439" width="70" height="20" as="geometry" />
        </mxCell>
        <mxCell id="7yRnZGhyyuTeM_uhMtki-19" value="&lt;span style=&quot;font-size: 19px&quot;&gt;Shard&lt;/span&gt;" style="text;html=1;align=center;verticalAlign=middle;resizable=0;points=[];autosize=1;strokeColor=none;fillColor=none;" vertex="1" parent="1">
          <mxGeometry x="-238" y="385" width="70" height="20" as="geometry" />
        </mxCell>
        <mxCell id="7yRnZGhyyuTeM_uhMtki-20" value="&lt;font style=&quot;font-size: 15px&quot;&gt;Replica&lt;/font&gt;" style="rounded=0;whiteSpace=wrap;html=1;" vertex="1" parent="1">
          <mxGeometry x="-203.75" y="750" width="124.5" height="30" as="geometry" />
        </mxCell>
        <mxCell id="7yRnZGhyyuTeM_uhMtki-21" value="&lt;font style=&quot;font-size: 15px&quot;&gt;Replica&lt;/font&gt;" style="rounded=0;whiteSpace=wrap;html=1;" vertex="1" parent="1">
          <mxGeometry x="-64.5" y="750" width="124.5" height="30" as="geometry" />
        </mxCell>
        <mxCell id="7yRnZGhyyuTeM_uhMtki-28" value="&lt;font style=&quot;font-size: 15px&quot;&gt;Replicate&lt;/font&gt;" style="text;html=1;strokeColor=none;fillColor=none;align=center;verticalAlign=middle;whiteSpace=wrap;rounded=0;" vertex="1" parent="1">
          <mxGeometry x="-60" y="710" width="40" height="20" as="geometry" />
        </mxCell>
        <mxCell id="7yRnZGhyyuTeM_uhMtki-41" style="edgeStyle=none;rounded=0;orthogonalLoop=1;jettySize=auto;html=1;exitX=0.5;exitY=1;exitDx=0;exitDy=0;entryX=0.5;entryY=0;entryDx=0;entryDy=0;endArrow=classic;endFill=1;startSize=15;endSize=6;sourcePerimeterSpacing=8;targetPerimeterSpacing=8;" edge="1" parent="1" source="7yRnZGhyyuTeM_uhMtki-29" target="7yRnZGhyyuTeM_uhMtki-12">
          <mxGeometry relative="1" as="geometry" />
        </mxCell>
        <mxCell id="7yRnZGhyyuTeM_uhMtki-29" value="&lt;font style=&quot;font-size: 15px&quot;&gt;Clients&lt;/font&gt;" style="rounded=1;whiteSpace=wrap;html=1;hachureGap=4;pointerEvents=0;" vertex="1" parent="1">
          <mxGeometry x="-140.69" y="320" width="249.75" height="50" as="geometry" />
        </mxCell>
        <mxCell id="7yRnZGhyyuTeM_uhMtki-42" value="&lt;meta charset=&quot;utf-8&quot;&gt;&lt;span style=&quot;color: rgb(0, 0, 0); font-family: helvetica; font-size: 15px; font-style: normal; font-weight: 400; letter-spacing: normal; text-align: center; text-indent: 0px; text-transform: none; word-spacing: 0px; background-color: rgb(248, 249, 250); display: inline; float: none;&quot;&gt;Read(region)&lt;/span&gt;" style="text;html=1;strokeColor=none;fillColor=none;align=center;verticalAlign=middle;whiteSpace=wrap;rounded=0;hachureGap=4;pointerEvents=0;" vertex="1" parent="1">
          <mxGeometry x="17" y="399" width="40" height="20" as="geometry" />
        </mxCell>
        <mxCell id="7yRnZGhyyuTeM_uhMtki-44" value="&lt;span style=&quot;color: rgb(0 , 0 , 0) ; font-family: &amp;#34;helvetica&amp;#34; ; font-size: 15px ; font-style: normal ; font-weight: 400 ; letter-spacing: normal ; text-align: center ; text-indent: 0px ; text-transform: none ; word-spacing: 0px ; background-color: rgb(248 , 249 , 250) ; display: inline ; float: none&quot;&gt;Append(region)&lt;/span&gt;" style="text;html=1;strokeColor=none;fillColor=none;align=center;verticalAlign=middle;whiteSpace=wrap;rounded=0;hachureGap=4;pointerEvents=0;" vertex="1" parent="1">
          <mxGeometry x="-97" y="398" width="40" height="20" as="geometry" />
        </mxCell>
      </root>
    </mxGraphModel>
  </diagram>
</mxfile>
